<?xml version="1.0" standalone="no"?>
<svg data-v-15e0f03e="" width="90" height="150" id="tablature" xmlns="http://www.w3.org/2000/svg"><rect data-v-15e0f03e="" width="100%" height="100%" id="background" style="fill: white;"></rect><g data-v-15e0f03e="" id="workzone" class="" style="transform: translate(-480px, -180px);"><g data-v-15e0f03e="" id="workzoneContainer"><line data-v-15e0f03e="" x1="480" y1="210" x2="570" y2="210" style="fill: black; stroke-width: 1px; stroke: black;"></line><line data-v-15e0f03e="" x1="480" y1="270" x2="570" y2="270" style="fill: black; stroke-width: 1px; stroke: black;"></line><line data-v-15e0f03e="" x1="510" y1="180" x2="510" y2="330" style="fill: black; stroke-width: 1px; stroke: rgb(204, 204, 204);"></line><line data-v-15e0f03e="" x1="540" y1="180" x2="540" y2="330" style="fill: black; stroke-width: 1px; stroke: rgb(204, 204, 204);"></line><!----><g data-v-15e0f03e=""><g data-v-15e0f03e=""><g data-v-640b0642="" data-v-15e0f03e="" transform="translate(510, 210)"><rect data-v-640b0642="" width="15" height="25" transform="translate(-7.5, 0)" style="stroke: rgb(102, 102, 102); stroke-width: 1px; fill: rgb(255, 255, 255);"></rect><!----><!----><!----></g></g><g data-v-15e0f03e=""><g data-v-640b0642="" data-v-15e0f03e="" transform="translate(540, 210)"><rect data-v-640b0642="" width="15" height="25" transform="translate(-7.5, 0)" style="stroke: rgb(102, 102, 102); stroke-width: 1px; fill: rgb(153, 153, 153);"></rect><!----><!----><!----></g></g></g><g data-v-15e0f03e=""><g data-v-15e0f03e=""><g data-v-640b0642="" data-v-15e0f03e="" transform="translate(510, 270)"><rect data-v-640b0642="" width="15" height="25" transform="translate(-7.5, 0)" style="stroke: rgb(102, 102, 102); stroke-width: 1px; fill: rgb(153, 153, 153);"></rect><!----><!----><!----></g></g><g data-v-15e0f03e=""><g data-v-640b0642="" data-v-15e0f03e="" transform="translate(540, 270)"><rect data-v-640b0642="" width="15" height="25" transform="translate(-7.5, 0)" style="stroke: rgb(102, 102, 102); stroke-width: 1px; fill: rgb(255, 255, 255);"></rect><!----><!----><!----></g></g></g></g><g data-v-6347dd3e="" data-v-15e0f03e="" style="display: none;"><rect data-v-6347dd3e="" x="480" y="210" width="90" height="120" style="fill: rgba(46, 213, 115, 0.2); cursor: grab;"></rect><g data-v-6347dd3e="" transform="translate(480, 210)"><polygon data-v-6347dd3e="" points="0,0 10,0 10,4, 4,4 4,10, 0,10" fill="green" class="resize tl"></polygon><circle data-v-6347dd3e="" r="30" opacity="0" x="x1" y="y1" cursor="nwse-resize"></circle></g><g data-v-6347dd3e="" transform="translate(560, 210)"><polygon data-v-6347dd3e="" points="0,0 10,0 10,10, 6,10 6,4 0,4" fill="green" class="resize tr"></polygon><circle data-v-6347dd3e="" r="30" opacity="0" x="x2" y="y1" cursor="nesw-resize"></circle></g><g data-v-6347dd3e="" transform="translate(480, 320)"><polygon data-v-6347dd3e="" points="0,0 4,0 4,6 10,6 10,10 0,10" fill="green" class="resize bl"></polygon><circle data-v-6347dd3e="" r="30" opacity="0" x="x1" y="y2" cursor="nesw-resize"></circle></g><g data-v-6347dd3e="" transform="translate(560, 320)"><polygon data-v-6347dd3e="" points="6,0 10,0 10,10 0,10 0,6 6,6" fill="green" class="resize br"></polygon><circle data-v-6347dd3e="" r="30" opacity="0" x="x2" y="y2" cursor="nwse-resize"></circle></g></g></g></svg>