<?xml version="1.0" standalone="no"?>
<svg width="210" height="300" id="tablature" class="" xmlns="http://www.w3.org/2000/svg"><rect width="100%" height="100%" id="background" style="fill: white;"></rect><g id="workzone" style="transform: translate(-450px, -120px);" class=""><g id="workzoneContainer"><line x1="450" y1="150" x2="660" y2="150" style="fill: black; stroke-width: 1px; stroke: black;"></line><line x1="450" y1="210" x2="660" y2="210" style="fill: black; stroke-width: 1px; stroke: black;"></line><line x1="450" y1="270" x2="660" y2="270" style="fill: black; stroke-width: 1px; stroke: black;"></line><line x1="450" y1="330" x2="660" y2="330" style="fill: black; stroke-width: 1px; stroke: black;"></line><line x1="480" y1="120" x2="480" y2="390" style="fill: black; stroke-width: 1px; stroke: rgb(204, 204, 204);"></line><line x1="510" y1="120" x2="510" y2="390" style="fill: black; stroke-width: 1px; stroke: rgb(204, 204, 204);"></line><line x1="540" y1="120" x2="540" y2="390" style="fill: black; stroke-width: 1px; stroke: rgb(204, 204, 204);"></line><line x1="570" y1="120" x2="570" y2="390" style="fill: black; stroke-width: 1px; stroke: rgb(204, 204, 204);"></line><line x1="600" y1="120" x2="600" y2="390" style="fill: black; stroke-width: 1px; stroke: rgb(204, 204, 204);"></line><line x1="630" y1="120" x2="630" y2="390" style="fill: black; stroke-width: 1px; stroke: rgb(204, 204, 204);"></line><g><g><g><g transform="translate(480, 150)" style=""><rect width="15" height="25" transform="translate(-7.5, 0)" style="stroke: rgb(102, 102, 102); stroke-width: 1px; fill: rgb(153, 153, 153);"></rect></g></g><g><g transform="translate(510, 150)" style=""><rect width="15" height="25" transform="translate(-7.5, 0)" style="stroke: rgb(102, 102, 102); stroke-width: 1px; fill: rgb(255, 255, 255);"></rect></g></g><g><g transform="translate(540, 150)" style=""><rect width="15" height="25" transform="translate(-7.5, 0)" style="stroke: rgb(102, 102, 102); stroke-width: 1px; fill: rgb(255, 255, 255);"></rect></g></g><g><g transform="translate(570, 150)" style=""><rect width="15" height="25" transform="translate(-7.5, 0)" style="stroke: rgb(102, 102, 102); stroke-width: 1px; fill: rgb(255, 255, 255);"></rect><g><circle r="10" cy="20" fill="transparent" stroke="#00B0FF" opacity="1"></circle><path d="m -12 20 a 1 1 0 0 1 24 0 a 1 1 0 0 1 -24 0" fill="#000000"></path><ellipse rx="22" ry="1" opacity="0"></ellipse></g></g></g><g><g transform="translate(600, 150)" style=""><rect width="15" height="25" transform="translate(-7.5, 0)" style="stroke: rgb(102, 102, 102); stroke-width: 1px; fill: rgb(255, 255, 255);"></rect></g></g><g><g transform="translate(630, 150)" style=""><rect width="15" height="25" transform="translate(-7.5, 0)" style="stroke: rgb(102, 102, 102); stroke-width: 1px; fill: rgb(153, 153, 153);"></rect></g></g></g><g><g><g transform="translate(480, 210)"><rect width="15" height="25" transform="translate(-7.5, 0)" style="stroke: rgb(102, 102, 102); stroke-width: 1px; fill: rgb(255, 255, 255);"></rect></g></g><g><g transform="translate(510, 210)"><rect width="15" height="25" transform="translate(-7.5, 0)" style="stroke: rgb(102, 102, 102); stroke-width: 1px; fill: rgb(255, 255, 255);"></rect></g></g><g><g transform="translate(540, 210)"><rect width="15" height="25" transform="translate(-7.5, 0)" style="stroke: rgb(102, 102, 102); stroke-width: 1px; fill: rgb(153, 153, 153);"></rect><g><circle r="10" cy="20" fill="transparent" stroke="#00B0FF" opacity="1"></circle><path d="m -12 20 a 1 1 0 0 1 24 0 a 1 1 0 0 1 -24 0" fill="#000000"></path><ellipse rx="22" ry="1" opacity="0"></ellipse></g></g></g><g><g transform="translate(570, 210)"><rect width="15" height="25" transform="translate(-7.5, 0)" style="stroke: rgb(102, 102, 102); stroke-width: 1px; fill: rgb(153, 153, 153);"></rect></g></g><g><g transform="translate(600, 210)"><rect width="15" height="25" transform="translate(-7.5, 0)" style="stroke: rgb(102, 102, 102); stroke-width: 1px; fill: rgb(153, 153, 153);"></rect></g></g><g><g transform="translate(630, 210)" style=""><rect width="15" height="25" transform="translate(-7.5, 0)" style="stroke: rgb(102, 102, 102); stroke-width: 1px; fill: rgb(255, 255, 255);"></rect><rect width="10" height="5" transform="translate(-5, 7)" style="fill: transparent; stroke: black;"></rect></g></g></g><g><g><g transform="translate(480, 270)"><rect width="15" height="25" transform="translate(-7.5, 0)" style="stroke: rgb(102, 102, 102); stroke-width: 1px; fill: rgb(153, 153, 153);"></rect></g></g><g><g transform="translate(510, 270)"><rect width="15" height="25" transform="translate(-7.5, 0)" style="stroke: rgb(102, 102, 102); stroke-width: 1px; fill: rgb(153, 153, 153);"></rect><g><circle r="10" cy="20" fill="transparent" stroke="#00B0FF" opacity="1"></circle><path d="m -12 20 a 1 1 0 0 1 24 0 a 1 1 0 0 1 -24 0" fill="#000000"></path><ellipse rx="22" ry="1" opacity="0"></ellipse></g></g></g><g><g transform="translate(540, 270)"><rect width="15" height="25" transform="translate(-7.5, 0)" style="stroke: rgb(102, 102, 102); stroke-width: 1px; fill: rgb(255, 255, 255);"></rect></g></g><g><g transform="translate(570, 270)"><rect width="15" height="25" transform="translate(-7.5, 0)" style="stroke: rgb(102, 102, 102); stroke-width: 1px; fill: rgb(255, 255, 255);"></rect></g></g><g><g transform="translate(600, 270)"><rect width="15" height="25" transform="translate(-7.5, 0)" style="stroke: rgb(102, 102, 102); stroke-width: 1px; fill: rgb(255, 255, 255);"></rect></g></g><g><g transform="translate(630, 270)" style=""><rect width="15" height="25" transform="translate(-7.5, 0)" style="stroke: rgb(102, 102, 102); stroke-width: 1px; fill: rgb(255, 255, 255);"></rect></g></g></g><g><g><g transform="translate(480, 330)"><rect width="15" height="25" transform="translate(-7.5, 0)" style="stroke: rgb(102, 102, 102); stroke-width: 1px; fill: rgb(255, 255, 255);"></rect><rect width="10" height="5" transform="translate(-5, 7)" style="fill: transparent; stroke: black;"></rect><g><circle r="10" cy="20" fill="transparent" stroke="#00B0FF" opacity="1"></circle><path d="m -12 20 a 1 1 0 0 1 24 0 a 1 1 0 0 1 -24 0" fill="#000000"></path><ellipse rx="22" ry="1" opacity="0"></ellipse></g></g></g><g><g transform="translate(510, 330)"><rect width="15" height="25" transform="translate(-7.5, 0)" style="stroke: rgb(102, 102, 102); stroke-width: 1px; fill: rgb(255, 255, 255);"></rect></g></g><g><g transform="translate(540, 330)"><rect width="15" height="25" transform="translate(-7.5, 0)" style="stroke: rgb(102, 102, 102); stroke-width: 1px; fill: rgb(255, 255, 255);"></rect></g></g><g><g transform="translate(570, 330)"><rect width="15" height="25" transform="translate(-7.5, 0)" style="stroke: rgb(102, 102, 102); stroke-width: 1px; fill: rgb(153, 153, 153);"></rect></g></g><g><g transform="translate(600, 330)"><rect width="15" height="25" transform="translate(-7.5, 0)" style="stroke: rgb(102, 102, 102); stroke-width: 1px; fill: rgb(153, 153, 153);"></rect></g></g><g><g transform="translate(630, 330)" style=""><rect width="15" height="25" transform="translate(-7.5, 0)" style="stroke: rgb(102, 102, 102); stroke-width: 1px; fill: rgb(153, 153, 153);"></rect></g></g></g></g><g transform="translate(450, 390)" id="titleContainer" style=""><rect width="210" height="30" style="fill: transparent;"></rect><text x="105" y="17" alignment-baseline="middle" text-anchor="middle" fill="#000000" style="font-family: Helvetica, Arial, sans-serif;">Cdim7</text></g></g></g></svg>