<svg xmlns="http://www.w3.org/2000/svg" viewBox="0 0 510.93292 121.92983"><title>Fichier 1</title><g id="Calque_2" data-name="Calque 2"><g id="Calque_1-2" data-name="Calque 1"><path d="M2.81159,11.51113Q2.59349,6.38,2.35243,1.05c.71935.10713,1.43105.20662,2.10448.28314a16.17628,16.17628,0,0,0,2.0203.12245,16.47786,16.47786,0,0,0,2.028-.12245C9.171,1.25657,9.875,1.15708,10.60965,1.05q-.25254,5.33774-.46681,10.46118-.20663,5.13111-.21428,10.46119,0,10.18186.08418,17.647.09183,7.47284.16836,13.37686,5.98054,0,11.47134-.12245a112.98853,112.98853,0,0,0,11.8004-.93363,9.00482,9.00482,0,0,0-.42855,2.4259,7.2834,7.2834,0,0,0,.42855,2.181c-2.5866-.11479-5.1732-.16071-7.75215-.16071H10.14284c-2.50242,0-5.10433.04592-7.79041.16071q.241-5.00484.45916-10.178.20662-5.16553.20662-10.49945V21.97232q0-5.33773-.20662-10.46119" style="fill:#a0aec0"/><path d="M44.95861,11.38946q-.2181-5.16555-.45916-10.33875c2.52538.10714,5.04311.199,7.53787.28316,2.50242.07652,5.0125.12244,7.54552.12244s5.0278-.04592,7.50726-.12244q3.70771-.12628,7.49961-.28316a11.8613,11.8613,0,0,0-.24488,2.4259,11.78777,11.78777,0,0,0,.24488,2.41824c-1.79838-.10714-3.436-.20662-4.92832-.32141q-2.22692-.16071-4.72168-.32141c-1.66063-.10714-3.46666-.20662-5.44105-.28315q-2.95009-.12627-7.0787-.12244c-.05357,1.72185-.1301,3.36716-.20663,4.92831-.09183,1.56114-.13009,3.33656-.13009,5.3339,0,2.09683.0153,4.14775.03826,6.13743.03061,1.9897.04592,3.50492.04592,4.52273,2.47181,0,4.68343-.03062,6.65781-.08418q2.9501-.08035,5.39513-.199c1.63-.08418,3.12994-.16071,4.50741-.24489,1.37748-.07652,2.68608-.16836,3.92582-.28314a12.30219,12.30219,0,0,0-.25254,2.51007,11.79911,11.79911,0,0,0,.25254,2.41824c-1.46166-.16071-3.16055-.2908-5.10433-.40559-1.93612-.09948-3.8799-.16836-5.80837-.199-1.94377-.023-3.77276-.05357-5.48695-.07653q-2.5713-.04592-4.08652-.04591c0,.48211-.01531,1.01015-.04592,1.57645-.023.56629-.03826,1.278-.03826,2.14274v7.997q0,4.60308.03826,7.59144.04592,2.996.13009,4.52272H58.1518q3.20263,0,6.28283-.12244c2.05091-.07653,3.987-.18367,5.82367-.32142a37.8324,37.8324,0,0,0,4.76-.60456,5.17266,5.17266,0,0,0-.21427,1.255c-.03062.45916-.04592.87241-.04592,1.24739a6.92929,6.92929,0,0,0,.26019,2.10447q-3.79954-.17217-7.55318-.16835H52.16742c-2.52538,0-5.089.05357-7.668.16835q.24106-5.16554.45916-10.30047.20662-5.13112.20662-10.46119V21.88891q0-5.32626-.20662-10.49945" style="fill:#a0aec0"/><path d="M87.27936,48.99309a13.75266,13.75266,0,0,0,2.77791,2.709,14.59145,14.59145,0,0,0,8.724,2.7473,12.95588,12.95588,0,0,0,5.02015-.93362,11.47138,11.47138,0,0,0,3.79572-2.50242,10.87542,10.87542,0,0,0,2.39528-3.71919,12.23324,12.23324,0,0,0,.84944-4.561,8.42837,8.42837,0,0,0-1.982-5.9002,16.47164,16.47164,0,0,0-4.92832-3.635,60.288,60.288,0,0,0-6.367-2.66313,33.85294,33.85294,0,0,1-6.367-3.03045,16.41026,16.41026,0,0,1-4.92831-4.64517,12.97131,12.97131,0,0,1-1.982-7.59144,14.83928,14.83928,0,0,1,1.26269-6.18335,13.5448,13.5448,0,0,1,3.66563-4.79822,17.42218,17.42218,0,0,1,5.77775-3.15289A26.391,26.391,0,0,1,109.57156.92673a17.73268,17.73268,0,0,1,5.4793,2.86975,17.30119,17.30119,0,0,0-1.26269,2.908c-.32907,1.02546-.66578,2.31111-1.01015,3.8799h-1.01015a20.6116,20.6116,0,0,0-1.14025-2.46415,9.54342,9.54342,0,0,0-1.93612-2.46416,10.85657,10.85657,0,0,0-2.908-1.89786,9.69675,9.69675,0,0,0-4.04825-.77292,12.56126,12.56126,0,0,0-4.33906.727,10.59791,10.59791,0,0,0-3.459,2.05857,9.37146,9.37146,0,0,0-2.28049,3.19881,10.17847,10.17847,0,0,0-.79588,4.04061,8.55441,8.55441,0,0,0,1.982,5.96907,16.75318,16.75318,0,0,0,4.92831,3.68093,50.31,50.31,0,0,0,6.367,2.66313,35.88775,35.88775,0,0,1,6.35935,2.86975,16.022,16.022,0,0,1,4.936,4.362,11.62181,11.62181,0,0,1,1.982,7.10932,18.08666,18.08666,0,0,1-1.38513,7.02514,16.7478,16.7478,0,0,1-4.04826,5.77776,18.19194,18.19194,0,0,1-6.49711,3.79573,26.49914,26.49914,0,0,1-8.71638,1.33156,22.6581,22.6581,0,0,1-8.47914-1.33156,23.19354,23.19354,0,0,1-5.43339-3.03046,19.44978,19.44978,0,0,0,1.05606-3.35187c.18367-.99484.375-2.27284.54334-3.834H85.458a16.83765,16.83765,0,0,0,1.82134,2.94627" style="fill:#a0aec0"/><path d="M194.09059,54.64764a23.30566,23.30566,0,0,1-3.96409,1.36984c-1.54583.41324-3.27533.77291-5.18085,1.09433a36.12928,36.12928,0,0,1-5.992.48211,40.05046,40.05046,0,0,1-12.30548-1.81368A25.59461,25.59461,0,0,1,150.501,41.156a30.74332,30.74332,0,0,1-2.3111-12.23661,30.80778,30.80778,0,0,1,2.3111-12.24425,25.6553,25.6553,0,0,1,6.48945-9.08371,28.43891,28.43891,0,0,1,9.99438-5.65531A40.51172,40.51172,0,0,1,179.80307,0a43.95139,43.95139,0,0,1,10.15508,1.09433,48.88816,48.88816,0,0,1,8.13477,2.62486,10.32524,10.32524,0,0,0-1.09432,3.06872c-.28316,1.28565-.50508,2.37233-.6811,3.22942l-.50507.16071a18.06009,18.06009,0,0,0-2.357-2.181,26.83353,26.83353,0,0,0-3.54319-2.34171,22.78046,22.78046,0,0,0-4.54568-1.89786,19.09453,19.09453,0,0,0-5.56348-.77292,26.98539,26.98539,0,0,0-9.23677,1.53818,19.7212,19.7212,0,0,0-7.41542,4.72934,22.00922,22.00922,0,0,0-4.936,8.07356A34.14885,34.14885,0,0,0,156.4548,28.9194a34.11813,34.11813,0,0,0,1.76011,11.59379,22.04227,22.04227,0,0,0,4.936,8.0812,19.70316,19.70316,0,0,0,7.41542,4.72169,26.98416,26.98416,0,0,0,9.23677,1.53053,20.33357,20.33357,0,0,0,5.60175-.727,29.96491,29.96491,0,0,0,4.72168-1.73716,28.09341,28.09341,0,0,0,3.8799-2.17336c1.14025-.78056,2.11979-1.4693,2.90036-2.05856l.34437.32141-.75761,4.76a10.92424,10.92424,0,0,1-2.40293,1.41573" style="fill:#a0aec0"/><path d="M251.0746,11.51113c-.14541-3.42073-.29082-6.90269-.45917-10.46118.727.10713,1.4234.20662,2.09681.28314a16.47817,16.47817,0,0,0,2.028.12245,16.38813,16.38813,0,0,0,2.028-.12245c.67342-.07652,1.37749-.176,2.10447-.28314q-.25254,5.33774-.46682,10.46118-.2066,5.13111-.2066,10.46119V35.86955q0,5.32626.2066,10.49945.21811,5.16555.46682,10.178c-1.30094-.11479-2.67077-.16071-4.13245-.16071s-2.83147.04592-4.12476.16071c.16835-3.33656.31376-6.73434.45917-10.178q.2066-5.16553.21427-10.49945v-7.27c-3.03813-.05357-5.97674-.09949-8.80822-.12245-2.84678-.023-5.77775-.04591-8.81586-.04591-3.03046,0-5.96907.023-8.80821.04591s-5.7701.06888-8.80822.12245v7.27c0,3.55084.07653,7.05576.20663,10.49945q.2181,5.16555.46682,10.178c-1.29331-.11479-2.66313-.16071-4.13245-.16071-1.46166,0-2.83914.04592-4.13243.16071q.25254-5.00484.46681-10.178.20664-5.16553.20662-10.49945V21.97232q0-5.33773-.20662-10.46119Q208.71711,6.38,208.45693,1.05c.73465.10713,1.4387.20662,2.11213.28314a16.35486,16.35486,0,0,0,2.0203.12245,16.26492,16.26492,0,0,0,2.0203-.12245c.6811-.07652,1.37748-.176,2.11215-.28314q-.25256,5.33774-.46682,10.46118c-.1301,3.42074-.20663,6.9027-.20663,10.46119v2.83149c3.03812.04591,5.96908.10713,8.80822.153q4.25871.08037,8.80821.08419c3.03811,0,5.96908-.03061,8.81586-.08419,2.83148-.04591,5.77009-.10713,8.80822-.153V21.97232q0-5.33773-.21427-10.46119" style="fill:#a0aec0"/><path d="M274.51163,11.38946q-.21812-5.16555-.46682-10.33875c2.533.10714,5.04311.199,7.54552.28316,2.49477.07652,5.01249.12244,7.55318.12244,2.51771,0,5.02013-.04592,7.492-.12244q3.71916-.12628,7.50725-.28316a11.74108,11.74108,0,0,0,0,4.84414c-1.79838-.10714-3.4437-.20662-4.92832-.32141-1.49991-.10714-3.06869-.21427-4.72934-.32141-1.653-.10714-3.46665-.20662-5.43338-.28315-1.96674-.08418-4.33139-.12244-7.07871-.12244-.05357,1.72185-.13776,3.36716-.21427,4.92831q-.12628,2.34171-.13011,5.3339c0,2.09683.01532,4.14775.04592,6.13743.023,1.9897.04592,3.50492.04592,4.52273q3.70773,0,6.6578-.08418,2.95011-.08035,5.38749-.199c1.63-.08418,3.13759-.16071,4.51507-.24489,1.37749-.07652,2.68607-.16836,3.92582-.28314a11.78529,11.78529,0,0,0-.26019,2.51007,11.29894,11.29894,0,0,0,.26019,2.41824c-1.46167-.16071-3.16056-.2908-5.10432-.40559q-2.90421-.14922-5.82369-.199c-1.92846-.023-3.75746-.05357-5.47165-.07653-1.72184-.03061-3.07637-.04591-4.08652-.04591,0,.48211-.02295,1.01015-.04592,1.57645-.0306.56629-.04592,1.278-.04592,2.14274v7.997q0,4.60308.04592,7.59144.03445,2.996.13011,4.52272h5.89255c2.14274,0,4.2319-.03826,6.28283-.12244q3.08786-.1148,5.816-.32142a37.46258,37.46258,0,0,0,4.76-.60456,6.61073,6.61073,0,0,0-.20662,1.255c-.02295.45916-.03827.87241-.03827,1.24739a7.51767,7.51767,0,0,0,.24489,2.10447q-3.78809-.17217-7.54552-.16835h-15.29q-3.79956,0-7.67561.16835.25253-5.16554.46682-10.30047.20659-5.13112.2066-10.46119V21.88891q0-5.32626-.2066-10.49945" style="fill:#a0aec0"/><path d="M334.0302,22.29526Q339.96482,33.12,346.45809,44.51094c.56631-1.02547,1.37748-2.49477,2.44885-4.40794q1.59558-2.85826,3.71154-6.58129c1.40046-2.47181,2.90038-5.15789,4.50743-8.03529q2.3991-4.3161,4.89005-8.7623,2.47945-4.44237,4.92832-8.724,2.445-4.28166,4.55334-7.997h1.09431q.92982,7.74831,1.72952,14.98391.80352,7.23176,1.64532,14.211.84942,6.99071,1.69124,13.8207.83794,6.83,1.85192,13.5299a11.88514,11.88514,0,0,0-1.982-.16835h-3.96409a11.751,11.751,0,0,0-1.982.16835q-.92976-10.74434-1.85195-20.83819-.92976-10.10151-2.28049-20.60095H367.281q-5.80838,10.17038-11.41777,20.23363Q350.25,45.39865,345.20307,56.38021h-.76528q-5.06222-10.17037-10.58363-20.39434-5.50991-10.2163-11.08868-20.87645h-.16071q-.58545,5.00484-1.30861,10.85912-.72318,5.86577-1.301,11.55552-.59688,5.69357-1.0178,10.74433c-.27549,3.36717-.4209,6.12213-.4209,8.28017a25.93234,25.93234,0,0,0-5.9002,0q1.09051-6.543,2.2805-13.813,1.17087-7.27768,2.28049-14.62424,1.07905-7.34655,2.0203-14.50179Q320.15593,6.46955,320.837.00306h1.431q5.81985,11.46752,11.76216,22.2922" style="fill:#a0aec0"/><path d="M391.60421,11.51113Q391.39757,6.38,391.1374,1.05c.73466.10713,1.43869.20662,2.11211.28314a16.17663,16.17663,0,0,0,2.0203.12245,16.47818,16.47818,0,0,0,2.028-.12245c.67341-.07652,1.37748-.176,2.10446-.28314q-.25252,5.33774-.46682,10.46118-.20659,5.13111-.21427,10.46119V35.86955q0,5.32626.21427,10.49945.20664,5.16555.46682,10.178c-1.30093-.11479-2.67077-.16071-4.13244-.16071s-2.83912.04592-4.13241.16071q.264-5.00484.46681-10.178.20659-5.16553.21428-10.49945V21.97232q0-5.33773-.21428-10.46119" style="fill:#a0aec0"/><path d="M442.06663,35.58028q-10.97394-11.26089-21.92489-22.41464-.09181,2.26135-.16835,6.0609-.08035,3.79955-.08419,10.33875c0,1.13259.00765,2.533.04592,4.20131q.03446,2.50242.08419,5.24972c.02295,1.83664.06122,3.68859.12243,5.57114q.09183,2.83532.16836,5.25738c.05357,1.61471.11478,3.0228.176,4.23957.05357,1.20912.09949,2.03561.1607,2.46416a23.48077,23.48077,0,0,0-2.95391-.16836,26.29032,26.29032,0,0,0-3.11464.16836c.10714-.53569.23725-1.53819.375-2.9922q.21811-2.181.3903-5.2038.16071-3.03045.375-6.58894c.13773-2.36467.24487-4.737.33671-7.10932.08419-2.37233.15306-4.68343.20663-6.94862q.08034-3.3863.08419-6.0609,0-7.74832-.03827-13.32328-.04595-5.5788-.21428-8.31845H417.448q5.13114,5.33774,11.00452,11.42543,5.85431,6.10682,11.632,12.03763,5.774,5.93463,10.9586,11.22645,5.177,5.29182,9.06077,9.01483V32.71818q0-8.483-.13012-16.52209-.12624-8.03529-.551-15.14462a12.76249,12.76249,0,0,0,2.86975.4056,12.45137,12.45137,0,0,0,2.7014-.4056q-.17218,1.77926-.38263,5.33391c-.14541,2.37232-.28317,4.89771-.42855,7.59144-.13776,2.69374-.26019,5.32625-.375,7.91285s-.16838,4.66047-.16838,6.22161v4.85179q0,2.74347.04592,5.73184c.023,1.9897.05357,4.00234.08419,6.015.03059,2.0203.05357,3.9105.08416,5.65531q.03447,2.62869.03827,4.56864V57.597h-1.18615q-9.68829-10.74435-20.63921-22.01671" style="fill:#a0aec0"/><path d="M480.79675,48.99309a13.59994,13.59994,0,0,0,2.78555,2.709,14.422,14.422,0,0,0,3.82633,1.97438,14.73066,14.73066,0,0,0,4.89.77292,12.95572,12.95572,0,0,0,5.02014-.93362,11.43737,11.43737,0,0,0,3.78808-2.50242,10.80137,10.80137,0,0,0,2.41061-3.71919,12.38369,12.38369,0,0,0,.8418-4.561,8.432,8.432,0,0,0-1.98971-5.9002,16.18634,16.18634,0,0,0-4.92829-3.635,58.96955,58.96955,0,0,0-6.367-2.66313,34.01018,34.01018,0,0,1-6.35937-3.03045,16.3212,16.3212,0,0,1-4.92832-4.64517,12.97146,12.97146,0,0,1-1.982-7.59144,14.72025,14.72025,0,0,1,1.26269-6.18335,13.5448,13.5448,0,0,1,3.66563-4.79822,17.34628,17.34628,0,0,1,5.77776-3.15289,26.41784,26.41784,0,0,1,14.586-.20663,17.99252,17.99252,0,0,1,5.47927,2.86975,16.70693,16.70693,0,0,0-1.26269,2.908,35.01025,35.01025,0,0,0-1.01012,3.8799h-1.01783A20.60932,20.60932,0,0,0,504.145,8.12024a9.41553,9.41553,0,0,0-1.94381-2.46416,10.692,10.692,0,0,0-2.90035-1.89786,9.72139,9.72139,0,0,0-4.04825-.77292,12.53036,12.53036,0,0,0-4.33907.727,10.519,10.519,0,0,0-3.459,2.05857,9.17024,9.17024,0,0,0-2.28049,3.19881,10.17847,10.17847,0,0,0-.79588,4.04061,8.55134,8.55134,0,0,0,1.97438,5.96907,16.79027,16.79027,0,0,0,4.936,3.68093,49.84107,49.84107,0,0,0,6.367,2.66313,36.47226,36.47226,0,0,1,6.367,2.86975,16.08109,16.08109,0,0,1,4.92829,4.362,11.67276,11.67276,0,0,1,1.98206,7.10932,17.95372,17.95372,0,0,1-1.39284,7.02514,16.54446,16.54446,0,0,1-4.04825,5.77776,17.995,17.995,0,0,1-6.4971,3.79573,26.43466,26.43466,0,0,1-8.71638,1.33156,22.61468,22.61468,0,0,1-8.47145-1.33156,23.25567,23.25567,0,0,1-5.44106-3.03046,18.80232,18.80232,0,0,0,1.05607-3.35187q.29847-1.49226.551-3.834h1.0025a16.39,16.39,0,0,0,1.82136,2.94627" style="fill:#a0aec0"/><path d="M8.15774,117.28467a32.32466,32.32466,0,0,0,4.85178.61221q3.06489.20663,6.29814.20663a42.44785,42.44785,0,0,0,9.3592-1.05607,20.67858,20.67858,0,0,0,8.372-4.00235,21.31485,21.31485,0,0,0,6.03795-8.02764q2.3532-5.09667,2.34172-13.16257a31.68285,31.68285,0,0,0-1.829-11.655,17.60667,17.60667,0,0,0-5.02014-7.21646,17.91742,17.91742,0,0,0-7.60675-3.66562,43.14917,43.14917,0,0,0-9.70357-1.02546q-3.82251,0-7.13993.25254c-2.21927.1607-4.20131.352-5.96142.5663-.16836,2.60955-.29081,5.34155-.38264,8.196-.08418,2.84679-.12244,5.74715-.12244,8.68577v14.012q0,8.80439.50508,17.27971M.46681,75.43227C.32141,71.97327.16836,68.4607,0,64.8716q3.2256.16071,6.42058.2908,3.17968.11479,6.42058.11479,3.2256,0,6.42824-.199,3.17967-.20662,6.41293-.20662a38.69392,38.69392,0,0,1,12.8029,1.8749,22.65391,22.65391,0,0,1,8.724,5.34156,20.7743,20.7743,0,0,1,4.97423,8.47915,37.63611,37.63611,0,0,1,1.57645,11.28767,29.219,29.219,0,0,1-2.93862,13.73652,26.442,26.442,0,0,1-7.4843,9.00719,28.4184,28.4184,0,0,1-10.0403,4.84413,41.44527,41.44527,0,0,1-10.49945,1.42339q-2.89271,0-5.70888-.07652-2.80088-.08036-5.69358-.07653H5.69358c-1.86725,0-3.77276.04592-5.69358.15305.16836-3.35951.32141-6.7879.46681-10.26221q.20663-5.21147.21428-10.59894v-14.012q0-5.38363-.21428-10.56067" style="fill:#a0aec0"/><path d="M66.64625,75.306q-.2181-5.21147-.47446-10.43057c2.556.10713,5.089.199,7.61439.28315s5.06606.12244,7.6144.12244c2.556,0,5.07371-.03827,7.57613-.12244,2.49477-.08418,5.0125-.176,7.56848-.28315a11.61811,11.61811,0,0,0,0,4.89005q-2.72051-.16071-4.98188-.32141c-1.49992-.11479-3.084-.22193-4.76-.33672q-2.50243-.16071-5.487-.28315c-1.98969-.07653-4.362-.12244-7.14758-.12244-.05357,1.7448-.1148,3.39778-.21428,4.97423-.07653,1.57644-.12245,3.37482-.12245,5.37982q0,3.17967.04592,6.19865c.03061,2.005.03827,3.52788.03827,4.56864q3.74215,0,6.72668-.09183c1.97439-.05357,3.79573-.12245,5.44105-.20662,1.64532-.07653,3.16055-.16071,4.55333-.23724,1.38513-.08418,2.70139-.176,3.94877-.2908a12.58478,12.58478,0,0,0-.26019,2.533,12.0317,12.0317,0,0,0,.26019,2.4412c-1.477-.16071-3.1835-.2908-5.13493-.40559q-2.95011-.16071-5.8849-.199c-1.95143-.03061-3.79572-.05357-5.52522-.08418s-3.09933-.04592-4.12478-.04592c0,.49743-.00766,1.02546-.03827,1.59176s-.04592,1.2933-.04592,2.15805v8.07355c0,3.09933.01532,5.64767.04592,7.66032s.06122,3.53552.12244,4.561h5.96143c2.1504,0,4.26253-.03061,6.32875-.11479,2.07387-.08418,4.033-.199,5.86959-.32906a39.58017,39.58017,0,0,0,4.81352-.61221,5.30233,5.30233,0,0,0-.21427,1.27034c-.03061.45916-.04592.8724-.04592,1.255a7.03849,7.03849,0,0,0,.26019,2.11979q-3.834-.16071-7.6144-.16071H73.91628c-2.556,0-5.12728.05357-7.74449.16071q.25253-5.21147.47446-10.39231c.1454-3.45135.20662-6.96392.20662-10.553V85.90494c0-3.5891-.06122-7.117-.20662-10.59894" style="fill:#a0aec0"/><path d="M157.65475,69.11041q-2.21545,0-4.63752.03826-2.42208.04592-4.84413.16836-2.42208.11479-4.67578.2908c-1.50758.09949-2.85445.23724-4.04826.40559a9.61782,9.61782,0,0,0,.42856-2.61721,10.924,10.924,0,0,0-.42856-2.52537q5.61323.17218,10.97391.2908,5.3607.11479,10.97392.11479c3.74215,0,7.40777-.03826,10.97391-.11479q5.3607-.12627,10.97391-.2908a10.54764,10.54764,0,0,0-.42088,2.60955,9.05959,9.05959,0,0,0,.42088,2.533c-1.18615-.16835-2.54067-.3061-4.0406-.40559-1.50756-.11479-3.06106-.21427-4.67577-.2908q-2.43356-.12627-4.85178-.16836-2.42208-.03442-4.63752-.03826-.25254,8.39115-.25253,16.88177v14.012q0,5.38365.21427,10.59893c.13775,3.47431.29845,6.9027.46681,10.26222-1.30861-.10714-2.69374-.15305-4.1707-.15305s-2.86209.04591-4.163.15305c.16835-3.35952.32141-6.78791.4668-10.26222q.20663-5.21146.21428-10.59893v-14.012q0-8.483-.26018-16.88177" style="fill:#a0aec0"/><path d="M202.94931,90.95952c.93363.05357,1.97439.07652,3.107.07652a28.3145,28.3145,0,0,0,5.487-.56629,16.51183,16.51183,0,0,0,5.23442-1.99735,12.27808,12.27808,0,0,0,3.95642-3.834,10.87865,10.87865,0,0,0,1.5688-6.07621,10.19179,10.19179,0,0,0-1.23208-5.24973,9.534,9.534,0,0,0-3.18351-3.29829,12.60352,12.60352,0,0,0-4.25487-1.68359,24.25614,24.25614,0,0,0-4.51507-.44385c-1.982,0-3.61972.04591-4.936.12244-1.301.08418-2.40293.18367-3.31361.28315q-.16071,4.48829-.33671,8.89239-.1722,4.39646-.16836,8.80821v4.63751a18.181,18.181,0,0,0,2.5866.32907m-9.78009-15.52725c-.13776-3.459-.29081-6.97157-.45917-10.56067q2.45651.16071,4.83648.2908c1.59175.07653,3.21411.11479,4.85179.11479q2.47945,0,4.85178-.199,2.37615-.20662,4.84414-.20662a34.865,34.865,0,0,1,6.81086.65048,16.96585,16.96585,0,0,1,5.64767,2.15805,11.09759,11.09759,0,0,1,3.834,3.95642,13.60348,13.60348,0,0,1-.4209,12.84117,16.70188,16.70188,0,0,1-4.46915,4.64516,22.44958,22.44958,0,0,1-5.65532,2.85444,29.57688,29.57688,0,0,1-5.48695,1.33922c.68108.81883,1.6147,1.96673,2.80852,3.42839q1.77926,2.204,3.9947,4.85178,2.21543,2.65166,4.59925,5.54053,2.37614,2.8927,4.5916,5.54053c1.4693,1.76776,2.86208,3.38247,4.163,4.85178,1.3086,1.46166,2.34938,2.5866,3.1529,3.33656a20.54424,20.54424,0,0,0-2.556-.15305H228.0883a18.64385,18.64385,0,0,0-2.47181.15305c-.84944-1.13259-2.1351-2.84679-3.8646-5.12728s-3.64266-4.72934-5.73949-7.3389q-3.15672-3.91434-6.42058-7.78276-3.283-3.86841-5.99968-6.55832h-3.22943V100.005q0,5.38365.21427,10.59894c.13774,3.47431.2908,6.9027.45917,10.26221-1.301-.10713-2.69375-.15305-4.163-.15305-1.477,0-2.8621.04592-4.163.15305.16836-3.35951.32141-6.7879.45917-10.26221q.21808-5.21147.21427-10.59894v-14.012q0-5.38363-.21427-10.56067" style="fill:#a0aec0"/><path d="M261.48067,109.86847,270.924,89.168c-1.58411-.06122-3.17583-.09949-4.75994-.13009q-2.38764-.03444-4.76762-.03827c-1.46932,0-3.0075.03061-4.59158.08418s-3.12229.08418-4.59161.08418Zm25.55989-40.34482q-1.73334,3.74215-3.91052,8.50976-2.16953,4.76377-4.62986,10.31579-2.47945,5.54434-4.936,11.16523-2.468,5.6247-4.85177,11.127-2.37617,5.49843-4.42326,10.224h-1.6147Q256.03964,106.287,249.489,92.18318q-6.543-14.10768-13.43806-28.36841a30.85958,30.85958,0,0,0,6.29047,0q1.11347,3.75363,3.32126,9.49695,2.204,5.7395,4.936,12.09886c1.76011.05356,3.482.09948,5.18084.12244q2.55981.04592,5.19616.04591,2.81235,0,5.60942-.04591c1.86724-.023,3.71919-.06888,5.53287-.12244.73466-1.78307,1.53054-3.68093,2.38-5.663s1.69124-3.94112,2.5101-5.86959c.81882-1.92082,1.57643-3.77276,2.25752-5.54818.67344-1.76011,1.21677-3.26769,1.61473-4.51507a16.81592,16.81592,0,0,0,2.24987.1607h4.51507a16.9047,16.9047,0,0,0,2.24987-.1607q-1.102,1.95142-2.85442,5.70888" style="fill:#a0aec0"/><path d="M299.82741,76.45084Q297.015,83.212,293.82772,90.7154q-3.19116,7.49577-6.543,15.32062-3.36333,7.82868-6.42821,14.83851c.7882-.10714,1.56113-.20662,2.29579-.28315a18.70322,18.70322,0,0,1,2.12744-.12244,19.03576,19.03576,0,0,1,2.13509.12244c.73466.07653,1.49227.176,2.28814.28315q1.87106-5.38365,4.1248-11.28767,2.26134-5.92317,4.76759-12.02233,2.50244-6.11831,5.13494-12.39731,2.65164-6.26752,5.37217-12.46618,1.5267,3.34038,3.31359,7.45369,1.79075,4.121,3.61973,8.56333c1.2091,2.95392,2.42588,5.97672,3.612,9.04544,1.19383,3.07637,2.33406,6.015,3.4437,8.84647q1.653,4.23575,3.01516,7.9052c.91831,2.44885,1.67594,4.56864,2.29579,6.35936a12.42777,12.42777,0,0,1,6.29815,0q-6.63485-14.17654-12.757-28.12352c8.21129,18.68014,2.77791,8.173-11.73918-27.87865a22.331,22.331,0,0,1-2.80853.16837,18.95548,18.95548,0,0,1-2.80853-.16837q-1.95141,4.8097-4.75994,11.57848" style="fill:#a0aec0"/><path d="M344.27481,75.306q-.21812-5.21147-.46682-10.43057,3.82251.1607,7.61439.28315c2.51771.08417,5.0584.12244,7.60674.12244q3.834,0,7.5685-.12244,3.75361-.12627,7.57611-.28315a11.96228,11.96228,0,0,0,0,4.89005c-1.82132-.10714-3.47429-.21428-4.97421-.32141-1.50759-.11479-3.0917-.22193-4.76762-.33672q-2.50243-.16071-5.48695-.28315c-1.9897-.07653-4.362-.12244-7.14759-.12244-.05357,1.7448-.12244,3.39778-.20663,4.97423s-.13008,3.37482-.13008,5.37982q0,3.17967.04592,6.19865.03441,3.0075.03824,4.56864,3.74216,0,6.71905-.09183c1.98968-.05357,3.79571-.12245,5.44868-.20662,1.63768-.07653,3.16057-.16071,4.55334-.23724,1.37748-.08418,2.709-.176,3.94877-.2908a12.58235,12.58235,0,0,0-.24487,2.533,12.00865,12.00865,0,0,0,.24487,2.4412c-1.46929-.16071-3.19116-.2908-5.13492-.40559-1.96673-.10714-3.93347-.176-5.8849-.199-1.95144-.03061-3.80339-.05357-5.52522-.08418-1.72952-.03061-3.09932-.04592-4.1248-.04592,0,.49743-.0153,1.02546-.03824,1.59176-.03062.56629-.04592,1.2933-.04592,2.15805v8.07355c0,3.09933.0153,5.64767.04592,7.66032.02294,2.01265.06886,3.53552.12243,4.561h5.95377c2.15806,0,4.27017-.03061,6.3364-.11479s4.0253-.199,5.8696-.32906a39.04293,39.04293,0,0,0,4.80586-.61221,5.72508,5.72508,0,0,0-.20662,1.27034c-.0306.45916-.04592.8724-.04592,1.255a7.3247,7.3247,0,0,0,.25254,2.11979c-2.54834-.10714-5.089-.16071-7.60674-.16071H351.54481q-3.834,0-7.73682.16071.241-5.21147.46682-10.39231.20659-5.177.20659-10.553V85.90494q0-5.38365-.20659-10.59894" style="fill:#a0aec0"/><path d="M394.17474,90.95952c.93361.05357,1.96673.07652,3.09932.07652a28.17827,28.17827,0,0,0,5.4793-.56629,16.34728,16.34728,0,0,0,5.24208-1.99735,12.278,12.278,0,0,0,3.95641-3.834,10.87974,10.87974,0,0,0,1.57646-6.07621,10.11641,10.11641,0,0,0-1.23972-5.24973,9.55508,9.55508,0,0,0-3.19116-3.29829,12.56475,12.56475,0,0,0-4.24723-1.68359,24.19347,24.19347,0,0,0-4.51507-.44385c-1.98206,0-3.62738.04591-4.92832.12244-1.30862.08418-2.41058.18367-3.32127.28315q-.17217,4.48829-.33671,8.89239-.17217,4.39646-.176,8.80821v4.63751a18.40758,18.40758,0,0,0,2.60191.32907M384.387,75.43227c-.13776-3.459-.29082-6.97157-.46682-10.56067q2.468.16071,4.85178.2908,2.37617.11479,4.84413.11479t4.85945-.199q2.36465-.20662,4.84413-.20662a34.84375,34.84375,0,0,1,6.80322.65048,17.07333,17.07333,0,0,1,5.6553,2.15805,11.14,11.14,0,0,1,3.82633,3.95642A12.08894,12.08894,0,0,1,421.005,77.751a12.08292,12.08292,0,0,1-1.82136,6.72669,16.70188,16.70188,0,0,1-4.46915,4.64516,22.3225,22.3225,0,0,1-5.6553,2.85444,29.57726,29.57726,0,0,1-5.487,1.33922c.68106.81883,1.62235,1.96673,2.80085,3.42839,1.19383,1.46931,2.51775,3.084,4.00236,4.85178,1.4693,1.76777,3.00748,3.61206,4.59159,5.54053q2.38763,2.8927,4.59926,5.54053c1.46929,1.76776,2.86207,3.38247,4.163,4.85178,1.30858,1.46166,2.357,2.5866,3.15288,3.33656a20.42248,20.42248,0,0,0-2.54833-.15305h-5.02778a18.44747,18.44747,0,0,0-2.46418.15305c-.84944-1.13259-2.14273-2.84679-3.87225-5.12728s-3.64265-4.72934-5.74714-7.3389q-3.14523-3.91434-6.42059-7.78276c-2.17336-2.57894-4.17833-4.7676-5.992-6.55832h-3.23708V100.005q0,5.38365.21428,10.59894c.14537,3.47431.29843,6.9027.46681,10.26221-1.301-.10713-2.69374-.15305-4.16306-.15305-1.477,0-2.86975.04592-4.17069.15305.176-3.35951.32906-6.7879.46682-10.26221q.21807-5.21147.21427-10.59894v-14.012c0-4.85944-.00767-5.663-.21427-10.56067" style="fill:#a0aec0"/><path d="M436.53606,113.25172a13.78248,13.78248,0,0,0,2.80086,2.732,14.63753,14.63753,0,0,0,8.80822,2.77026,12.98379,12.98379,0,0,0,5.0584-.94128,11.46011,11.46011,0,0,0,3.834-2.52538,11.12241,11.12241,0,0,0,2.4259-3.74215,12.66791,12.66791,0,0,0,.8418-4.61455,8.48416,8.48416,0,0,0-1.99736-5.94612,16.52467,16.52467,0,0,0-4.96656-3.67327,62.42554,62.42554,0,0,0-6.42824-2.68609,33.28217,33.28217,0,0,1-6.42058-3.05341,16.659,16.659,0,0,1-4.98189-4.69108,13.11365,13.11365,0,0,1-1.99733-7.66031,14.95006,14.95006,0,0,1,1.278-6.23692,13.566,13.566,0,0,1,3.69622-4.84413,17.58439,17.58439,0,0,1,5.82369-3.18351,26.50232,26.50232,0,0,1,14.71607-.20662,17.81418,17.81418,0,0,1,5.53287,2.8927,17.37255,17.37255,0,0,0-1.27035,2.93863A39.174,39.174,0,0,0,462.2643,74.491h-1.0178a20.44034,20.44034,0,0,0-1.15555-2.48712,9.38852,9.38852,0,0,0-1.95144-2.47946,11.04843,11.04843,0,0,0-2.931-1.92082,9.89513,9.89513,0,0,0-4.09417-.77292,12.55758,12.55758,0,0,0-4.36966.73466,10.48877,10.48877,0,0,0-3.48962,2.07387,9.19945,9.19945,0,0,0-2.2958,3.22177,10.132,10.132,0,0,0-.80352,4.07887,8.63437,8.63437,0,0,0,1.98968,6.03029,17.32938,17.32938,0,0,0,4.97424,3.71154,50.80264,50.80264,0,0,0,6.42823,2.68609,37.42451,37.42451,0,0,1,6.42824,2.8927,16.462,16.462,0,0,1,4.97421,4.40028,11.80279,11.80279,0,0,1,1.99736,7.17054,18.00258,18.00258,0,0,1-1.40811,7.094,16.48375,16.48375,0,0,1-4.08652,5.83133,18.5149,18.5149,0,0,1-6.543,3.834,26.8112,26.8112,0,0,1-8.80054,1.33921,22.866,22.866,0,0,1-8.55568-1.33921,23.77537,23.77537,0,0,1-5.487-3.06107,18.32541,18.32541,0,0,0,1.06372-3.38247c.199-1.01015.38266-2.2958.551-3.87225h1.0178a16.4368,16.4368,0,0,0,1.83665,2.97689" style="fill:#a0aec0"/><path d="M478.89736,75.306q-.21811-5.21147-.46682-10.43057c2.54834.10713,5.089.199,7.60674.28315q3.78805.12626,7.61439.12244c2.556,0,5.07373-.03827,7.57612-.12244q3.73073-.12627,7.56847-.28315a11.619,11.619,0,0,0,0,4.89005q-2.72052-.16071-4.98189-.32141c-1.49227-.11479-3.09167-.22193-4.75991-.33672q-2.51393-.16071-5.487-.28315c-1.98971-.07653-4.36966-.12244-7.14757-.12244-.05357,1.7448-.12243,3.39778-.20663,4.97423s-.13773,3.37482-.13773,5.37982q0,3.17967.05357,6.19865c.02295,2.005.04589,3.52788.04589,4.56864,2.48712,0,4.72935-.03061,6.71141-.09183q2.98448-.08035,5.44868-.20662c1.63764-.07653,3.16056-.16071,4.54569-.23724,1.39278-.08418,2.709-.176,3.95641-.2908a12.58194,12.58194,0,0,0-.25251,2.533,12.01855,12.01855,0,0,0,.25251,2.4412c-1.477-.16071-3.19116-.2908-5.15027-.40559-1.95141-.10714-3.91046-.176-5.86193-.199-1.959-.03061-3.79568-.05357-5.52522-.08418-1.73713-.03061-3.11462-.04592-4.12477-.04592,0,.49743-.02294,1.02546-.04589,1.59176-.03827.56629-.05357,1.2933-.05357,2.15805v8.07355c0,3.09933.0153,5.64767.05357,7.66032.02295,2.01265.06887,3.53552.12244,4.561h5.96138c2.15045,0,4.26253-.03061,6.32878-.11479,2.07384-.08418,4.02531-.199,5.86958-.32906a39.23867,39.23867,0,0,0,4.80586-.61221,5.7268,5.7268,0,0,0-.20663,1.27034c-.03059.45916-.04589.8724-.04589,1.255a7.60235,7.60235,0,0,0,.25252,2.11979c-2.54834-.10714-5.089-.16071-7.60671-.16071H486.175c-2.56363,0-5.13491.05357-7.74447.16071q.25254-5.21147.46682-10.39231.2066-5.177.21427-10.553V85.90494q0-5.38365-.21427-10.59894" style="fill:#a0aec0"/></g></g></svg>
